<svg aria-hidden="true" style="position: absolute; width: 0; height: 0; overflow: hidden;" version="1.1" xmlns="http://www.w3.org/2000/svg" xmlns:xlink="http://www.w3.org/1999/xlink">
<defs>
<symbol id="icon-bin" viewBox="0 0 32 32">
<path fill="none" stroke="#ffbc57" style="stroke: var(--color1, #ffbc57)" stroke-linejoin="miter" stroke-linecap="butt" stroke-miterlimit="4" stroke-width="1.28" d="M31.36 16c0 8.483-6.877 15.36-15.36 15.36s-15.36-6.877-15.36-15.36c0-8.483 6.877-15.36 15.36-15.36s15.36 6.877 15.36 15.36z"></path>
<path fill="#535353" style="fill: var(--color2, #535353)" d="M17.918 21.13c0.213 0 0.417-0.084 0.568-0.234s0.235-0.352 0.235-0.564v-1.595c0-0.212-0.085-0.414-0.235-0.564s-0.355-0.234-0.568-0.234-0.417 0.084-0.568 0.234c-0.151 0.149-0.235 0.352-0.235 0.564v1.595c0 0.211 0.085 0.414 0.235 0.564s0.355 0.234 0.568 0.234zM14.707 21.13c0.213 0 0.417-0.084 0.568-0.234s0.235-0.352 0.235-0.564v-1.595c0-0.212-0.085-0.414-0.235-0.564s-0.355-0.234-0.568-0.234c-0.213 0-0.417 0.084-0.568 0.234s-0.235 0.352-0.235 0.564v1.595c0 0.211 0.085 0.414 0.235 0.564s0.355 0.234 0.568 0.234zM21.932 11.562h-1.108l-1.389-2.751c-0.042-0.101-0.105-0.193-0.185-0.269s-0.174-0.135-0.278-0.173c-0.104-0.038-0.214-0.054-0.324-0.048s-0.218 0.035-0.316 0.084c-0.099 0.050-0.186 0.119-0.256 0.203s-0.122 0.182-0.153 0.288c-0.031 0.105-0.039 0.216-0.024 0.325s0.051 0.213 0.108 0.307l1.020 2.033h-5.428l1.020-2.033c0.078-0.186 0.082-0.394 0.012-0.583s-0.21-0.344-0.391-0.435c-0.181-0.091-0.39-0.11-0.585-0.055s-0.361 0.183-0.466 0.355l-1.389 2.751h-1.108c-0.568 0.008-1.114 0.216-1.542 0.585s-0.712 0.877-0.8 1.434 0.024 1.127 0.318 1.609c0.293 0.482 0.749 0.847 1.286 1.028l0.594 5.948c0.060 0.592 0.34 1.141 0.785 1.539s1.024 0.617 1.623 0.614h6.728c0.599 0.003 1.178-0.216 1.623-0.614s0.725-0.947 0.785-1.539l0.594-5.948c0.538-0.182 0.995-0.547 1.288-1.031s0.405-1.056 0.314-1.613c-0.090-0.558-0.377-1.066-0.808-1.434s-0.98-0.573-1.549-0.578zM20.479 22.008c-0.020 0.197-0.113 0.38-0.262 0.513s-0.341 0.206-0.541 0.205h-6.728c-0.2 0.001-0.393-0.072-0.541-0.205s-0.242-0.316-0.262-0.513l-0.57-5.661h9.474l-0.57 5.661zM21.932 14.751h-11.24c-0.213 0-0.417-0.084-0.568-0.234s-0.235-0.352-0.235-0.564 0.085-0.414 0.235-0.564c0.151-0.15 0.355-0.234 0.568-0.234h11.24c0.213 0 0.417 0.084 0.568 0.234s0.235 0.352 0.235 0.564-0.085 0.414-0.235 0.564c-0.151 0.149-0.355 0.234-0.568 0.234z"></path>
</symbol>
<symbol id="icon-burger" viewBox="0 0 32 32">
<path fill="#535353" style="fill: var(--color2, #535353)" d="M26.667 14.667h-21.333c-0.8 0-1.333 0.533-1.333 1.333s0.533 1.333 1.333 1.333h21.333c0.8 0 1.333-0.533 1.333-1.333s-0.533-1.333-1.333-1.333zM5.333 10.667h21.333c0.8 0 1.333-0.533 1.333-1.333s-0.533-1.333-1.333-1.333h-21.333c-0.8 0-1.333 0.533-1.333 1.333s0.533 1.333 1.333 1.333zM26.667 21.333h-21.333c-0.8 0-1.333 0.533-1.333 1.333s0.533 1.333 1.333 1.333h21.333c0.8 0 1.333-0.533 1.333-1.333s-0.533-1.333-1.333-1.333z"></path>
</symbol>
<symbol id="icon-catalog" viewBox="0 0 32 32">
<path fill="#fff" style="fill: var(--color3, #fff)" d="M28 4.634h-6.83c-0.736 0-1.333 0.597-1.333 1.333v6.83c0 0.736 0.597 1.333 1.333 1.333h6.83c0.736 0 1.333-0.597 1.333-1.333v-6.83c0-0.736-0.597-1.333-1.333-1.333z"></path>
<path fill="#fff" style="fill: var(--color3, #fff)" d="M15.155 8.439l-4.83-4.83c-0.521-0.521-1.365-0.521-1.886 0l-4.83 4.83c-0.521 0.521-0.521 1.365 0 1.886l4.83 4.83c0.521 0.521 1.365 0.521 1.886 0l4.83-4.83c0.521-0.521 0.521-1.365 0-1.886z"></path>
<path fill="#fff" style="fill: var(--color3, #fff)" d="M12.797 19.836h-6.83c-0.736 0-1.333 0.597-1.333 1.333v6.83c0 0.736 0.597 1.333 1.333 1.333h6.83c0.736 0 1.333-0.597 1.333-1.333v-6.83c0-0.736-0.597-1.333-1.333-1.333z"></path>
<path fill="#fff" style="fill: var(--color3, #fff)" d="M28 19.836h-6.83c-0.736 0-1.333 0.597-1.333 1.333v6.83c0 0.736 0.597 1.333 1.333 1.333h6.83c0.736 0 1.333-0.597 1.333-1.333v-6.83c0-0.736-0.597-1.333-1.333-1.333z"></path>
</symbol>
<symbol id="icon-fav" viewBox="0 0 32 32">
<path fill="none" stroke="#ffbc57" style="stroke: var(--color1, #ffbc57)" stroke-linejoin="miter" stroke-linecap="butt" stroke-miterlimit="4" stroke-width="1.28" d="M31.36 16c0 8.483-6.877 15.36-15.36 15.36s-15.36-6.877-15.36-15.36c0-8.483 6.877-15.36 15.36-15.36s15.36 6.877 15.36 15.36z"></path>
<path fill="#535353" style="fill: var(--color2, #535353)" d="M22.76 10.519c-0.88-0.882-2.046-1.42-3.288-1.518s-2.478 0.253-3.484 0.987c-1.056-0.785-2.37-1.142-3.678-0.997s-2.512 0.78-3.371 1.777c-0.858 0.997-1.307 2.283-1.256 3.598s0.599 2.562 1.533 3.489l5.154 5.162c0.432 0.425 1.013 0.663 1.618 0.663s1.187-0.238 1.618-0.663l5.154-5.162c0.969-0.975 1.513-2.293 1.513-3.668s-0.544-2.693-1.513-3.668zM21.59 16.71l-5.153 5.154c-0.059 0.059-0.128 0.106-0.205 0.138s-0.159 0.049-0.243 0.049c-0.083 0-0.166-0.017-0.243-0.049s-0.147-0.079-0.205-0.138l-5.154-5.178c-0.651-0.665-1.015-1.559-1.015-2.49s0.364-1.824 1.015-2.49c0.663-0.655 1.558-1.022 2.49-1.022s1.826 0.367 2.49 1.022c0.077 0.078 0.169 0.14 0.27 0.182s0.21 0.064 0.319 0.064c0.11 0 0.218-0.022 0.319-0.064s0.193-0.104 0.27-0.182c0.663-0.655 1.558-1.022 2.49-1.022s1.826 0.367 2.49 1.022c0.66 0.657 1.036 1.545 1.049 2.476s-0.34 1.829-0.982 2.503v0.025z"></path>
</symbol>
<symbol id="icon-search" viewBox="0 0 32 32">
<path fill="none" stroke="#ffbc57" style="stroke: var(--color1, #ffbc57)" stroke-linejoin="miter" stroke-linecap="butt" stroke-miterlimit="4" stroke-width="1.28" d="M31.36 16c0 8.483-6.877 15.36-15.36 15.36s-15.36-6.877-15.36-15.36c0-8.483 6.877-15.36 15.36-15.36s15.36 6.877 15.36 15.36z"></path>
<path fill="#535353" style="fill: var(--color2, #535353)" d="M23.473 22.439l-2.729-2.709c1.059-1.322 1.572-3 1.433-4.688s-0.919-3.26-2.18-4.391c-1.261-1.131-2.907-1.735-4.599-1.689s-3.303 0.74-4.5 1.938c-1.197 1.198-1.89 2.81-1.936 4.504s0.558 3.341 1.688 4.603 2.7 2.042 4.387 2.181c1.687 0.139 3.364-0.374 4.685-1.435l2.707 2.709c0.068 0.069 0.15 0.124 0.239 0.161s0.186 0.057 0.283 0.057c0.097 0 0.193-0.019 0.283-0.057s0.171-0.092 0.239-0.161c0.133-0.137 0.207-0.321 0.207-0.512s-0.074-0.374-0.207-0.512zM15.595 20.753c-1.018 0-2.014-0.302-2.861-0.868s-1.507-1.371-1.896-2.313c-0.39-0.942-0.492-1.978-0.293-2.977s0.689-1.918 1.409-2.638c0.72-0.721 1.638-1.211 2.636-1.41s2.034-0.097 2.975 0.293c0.941 0.39 1.745 1.050 2.311 1.898s0.868 1.844 0.868 2.863c0 1.367-0.542 2.677-1.508 3.644s-2.275 1.509-3.641 1.509z"></path>
</symbol>
<symbol id="icon-tel" viewBox="0 0 32 32">
<path fill="#f8f8f8" style="fill: var(--color4, #f8f8f8)" d="M32 16c0 8.837-7.163 16-16 16s-16-7.163-16-16c0-8.837 7.163-16 16-16s16 7.163 16 16z"></path>
<path fill="#535353" style="fill: var(--color2, #535353)" d="M21.179 17.085c-0.163 0-0.332-0.052-0.495-0.089-0.329-0.074-0.652-0.17-0.968-0.288-0.343-0.125-0.719-0.118-1.058 0.018s-0.614 0.393-0.774 0.721l-0.163 0.34c-0.717-0.407-1.38-0.903-1.972-1.477-0.574-0.592-1.070-1.255-1.477-1.972l0.34-0.155c0.328-0.16 0.584-0.436 0.72-0.774s0.143-0.715 0.018-1.058c-0.117-0.318-0.213-0.644-0.288-0.975-0.037-0.162-0.066-0.332-0.089-0.495-0.090-0.52-0.362-0.992-0.768-1.329s-0.92-0.518-1.448-0.511h-2.223c-0.312-0-0.621 0.065-0.906 0.192s-0.54 0.313-0.748 0.546c-0.213 0.239-0.371 0.521-0.464 0.827s-0.119 0.629-0.075 0.945c0.402 3.075 1.806 5.931 3.996 8.126 2.195 2.19 5.051 3.595 8.125 3.996 0.096 0.007 0.192 0.007 0.288 0 0.545 0.001 1.071-0.199 1.477-0.561 0.233-0.208 0.419-0.463 0.546-0.748s0.193-0.594 0.192-0.906v-2.216c-0.004-0.51-0.184-1.004-0.51-1.397s-0.777-0.662-1.278-0.76zM21.541 21.518c-0 0.103-0.022 0.205-0.064 0.299s-0.103 0.178-0.18 0.248c-0.081 0.074-0.177 0.129-0.282 0.16s-0.215 0.040-0.324 0.024c-2.757-0.36-5.318-1.616-7.291-3.575-1.974-1.974-3.241-4.545-3.605-7.313-0.016-0.108-0.008-0.219 0.024-0.324s0.087-0.201 0.161-0.282c0.070-0.077 0.155-0.139 0.251-0.181s0.199-0.063 0.303-0.063h2.216c0.171-0.004 0.338 0.051 0.472 0.156s0.229 0.254 0.266 0.42c0 0.199 0.066 0.406 0.111 0.606 0.085 0.387 0.199 0.767 0.34 1.138l-1.034 0.488c-0.178 0.082-0.316 0.23-0.384 0.414-0.074 0.18-0.074 0.382 0 0.561 1.063 2.277 2.894 4.108 5.171 5.171 0.18 0.074 0.382 0.074 0.561 0 0.183-0.068 0.332-0.206 0.414-0.384l0.465-1.034c0.381 0.139 0.771 0.252 1.167 0.34 0.192 0.044 0.399 0.081 0.598 0.111 0.167 0.038 0.315 0.132 0.42 0.266s0.16 0.302 0.156 0.472l0.066 2.283zM17.182 8.96c-0.17 0-0.347 0-0.517 0-0.196 0.017-0.377 0.11-0.504 0.261s-0.189 0.345-0.172 0.541 0.11 0.377 0.261 0.504c0.15 0.127 0.345 0.189 0.541 0.172h0.392c1.175 0 2.303 0.467 3.134 1.298s1.298 1.958 1.298 3.134c0 0.133 0 0.259 0 0.392-0.016 0.195 0.045 0.388 0.171 0.538s0.306 0.243 0.501 0.26h0.059c0.185 0.001 0.363-0.068 0.5-0.192s0.222-0.296 0.239-0.48c0-0.17 0-0.347 0-0.517 0-1.566-0.622-3.068-1.728-4.176s-2.608-1.731-4.174-1.733zM18.66 14.869c0 0.196 0.078 0.384 0.216 0.522s0.326 0.216 0.522 0.216 0.384-0.078 0.522-0.216c0.139-0.139 0.216-0.326 0.216-0.522 0-0.784-0.311-1.535-0.865-2.089s-1.306-0.865-2.089-0.865c-0.196 0-0.384 0.078-0.522 0.216s-0.216 0.326-0.216 0.522 0.078 0.384 0.216 0.522c0.139 0.139 0.326 0.216 0.522 0.216 0.392 0 0.768 0.156 1.045 0.433s0.433 0.653 0.433 1.045z"></path>
</symbol>
<symbol id="icon-tel-2" viewBox="0 0 32 32">
<path d="M32 16c0 8.837-7.163 16-16 16s-16-7.163-16-16c0-8.837 7.163-16 16-16s16 7.163 16 16z"></path>
<path d="M21.179 17.085c-0.163 0-0.332-0.052-0.495-0.089-0.329-0.074-0.652-0.17-0.968-0.288-0.343-0.125-0.719-0.118-1.058 0.018s-0.614 0.393-0.774 0.721l-0.163 0.34c-0.717-0.407-1.38-0.903-1.972-1.477-0.574-0.592-1.070-1.255-1.477-1.972l0.34-0.155c0.328-0.16 0.584-0.436 0.72-0.774s0.143-0.715 0.018-1.058c-0.117-0.318-0.213-0.644-0.288-0.975-0.037-0.162-0.066-0.332-0.089-0.495-0.090-0.52-0.362-0.992-0.768-1.329s-0.92-0.518-1.448-0.511h-2.223c-0.312-0-0.621 0.065-0.906 0.192s-0.54 0.313-0.748 0.546c-0.213 0.239-0.371 0.521-0.464 0.827s-0.119 0.629-0.075 0.945c0.402 3.075 1.806 5.931 3.996 8.126 2.195 2.19 5.051 3.595 8.125 3.996 0.096 0.007 0.192 0.007 0.288 0 0.545 0.001 1.071-0.199 1.477-0.561 0.233-0.208 0.419-0.463 0.546-0.748s0.193-0.594 0.192-0.906v-2.216c-0.004-0.51-0.184-1.004-0.51-1.397s-0.777-0.662-1.278-0.76zM21.541 21.518c-0 0.103-0.022 0.205-0.064 0.299s-0.103 0.178-0.18 0.248c-0.081 0.074-0.177 0.129-0.282 0.16s-0.215 0.040-0.324 0.024c-2.757-0.36-5.318-1.616-7.291-3.575-1.974-1.974-3.241-4.545-3.605-7.313-0.016-0.108-0.008-0.219 0.024-0.324s0.087-0.201 0.161-0.282c0.070-0.077 0.155-0.139 0.251-0.181s0.199-0.063 0.303-0.063h2.216c0.171-0.004 0.338 0.051 0.472 0.156s0.229 0.254 0.266 0.42c0 0.199 0.066 0.406 0.111 0.606 0.085 0.387 0.199 0.767 0.34 1.138l-1.034 0.488c-0.178 0.082-0.316 0.23-0.384 0.414-0.074 0.18-0.074 0.382 0 0.561 1.063 2.277 2.894 4.108 5.171 5.171 0.18 0.074 0.382 0.074 0.561 0 0.183-0.068 0.332-0.206 0.414-0.384l0.465-1.034c0.381 0.139 0.771 0.252 1.167 0.34 0.192 0.044 0.399 0.081 0.598 0.111 0.167 0.038 0.315 0.132 0.42 0.266s0.16 0.302 0.156 0.472l0.066 2.283zM17.182 8.96c-0.17 0-0.347 0-0.517 0-0.196 0.017-0.377 0.11-0.504 0.261s-0.189 0.345-0.172 0.541 0.11 0.377 0.261 0.504c0.15 0.127 0.345 0.189 0.541 0.172h0.392c1.175 0 2.303 0.467 3.134 1.298s1.298 1.958 1.298 3.134c0 0.133 0 0.259 0 0.392-0.016 0.195 0.045 0.388 0.171 0.538s0.306 0.243 0.501 0.26h0.059c0.185 0.001 0.363-0.068 0.5-0.192s0.222-0.296 0.239-0.48c0-0.17 0-0.347 0-0.517 0-1.566-0.622-3.068-1.728-4.176s-2.608-1.731-4.174-1.733zM18.66 14.869c0 0.196 0.078 0.384 0.216 0.522s0.326 0.216 0.522 0.216 0.384-0.078 0.522-0.216c0.139-0.139 0.216-0.326 0.216-0.522 0-0.784-0.311-1.535-0.865-2.089s-1.306-0.865-2.089-0.865c-0.196 0-0.384 0.078-0.522 0.216s-0.216 0.326-0.216 0.522 0.078 0.384 0.216 0.522c0.139 0.139 0.326 0.216 0.522 0.216 0.392 0 0.768 0.156 1.045 0.433s0.433 0.653 0.433 1.045z"></path>
</symbol>
</defs>
</svg>
